<svg width="235" height="236" viewBox="0 0 235 236" fill="none" xmlns="http://www.w3.org/2000/svg">
<g id="Landing Page - Pantanal Geradores">
<g id="Selo Garantia 1">
<path id="Selo Texto Animado 1" d="M115.458 225.812C115.836 225.83 116.016 226.028 115.998 226.406L115.618 234.426C115.6 234.804 115.402 234.984 115.024 234.966L111.865 234.817C111.042 234.778 110.422 234.527 110.006 234.066C109.586 233.608 109.395 232.968 109.434 232.144L109.453 231.739C109.492 230.916 109.743 230.294 110.205 229.873C110.662 229.458 111.302 229.269 112.126 229.308L114.718 229.431L114.864 226.352C114.882 225.974 115.08 225.794 115.458 225.812ZM114.664 230.565L112.072 230.442C111.559 230.418 111.189 230.509 110.963 230.715C110.737 230.92 110.612 231.28 110.587 231.793L110.568 232.198C110.544 232.706 110.635 233.074 110.841 233.3C111.046 233.531 111.406 233.658 111.919 233.683L114.511 233.805L114.664 230.565ZM106.848 225.387C107.185 225.576 107.258 225.836 107.065 226.168L102.775 233.563C102.6 233.839 102.37 233.956 102.084 233.916L102.057 233.912C101.769 233.858 101.594 233.683 101.531 233.388L99.3962 225.088C99.3031 224.716 99.4403 224.485 99.8077 224.395C100.18 224.307 100.411 224.444 100.501 224.807L100.976 226.662L105.146 227.249L106.082 225.593C106.269 225.265 106.524 225.196 106.848 225.387ZM104.546 228.311L101.28 227.851L102.375 232.142L104.546 228.311ZM94.9407 223.466C95.3076 223.559 95.4447 223.789 95.3519 224.156L93.3836 231.939C93.2908 232.306 93.0609 232.443 92.694 232.351C92.5062 232.303 92.3504 232.147 92.2265 231.884L88.6752 223.764L88.9504 223.833L87.2902 230.399C87.1975 230.765 86.9676 230.902 86.6007 230.81C86.2338 230.717 86.0967 230.487 86.1895 230.12L88.1578 222.336C88.2506 221.97 88.4805 221.832 88.8474 221.925C89.0439 221.975 89.1998 222.131 89.3149 222.392L92.8662 230.512L92.591 230.442L94.2511 223.877C94.3439 223.51 94.5738 223.373 94.9407 223.466ZM81.0074 219.528C81.1852 219.593 81.3023 219.686 81.3587 219.808C81.4152 219.929 81.4109 220.079 81.346 220.256L78.7919 227.252L81.2551 228.152C81.4328 228.216 81.5499 228.31 81.6064 228.431C81.6628 228.552 81.6586 228.702 81.5937 228.879C81.5288 229.057 81.4357 229.174 81.3143 229.231C81.193 229.287 81.0435 229.283 80.8657 229.218L74.8729 227.03C74.6951 226.965 74.578 226.872 74.5216 226.751C74.4652 226.63 74.4694 226.48 74.5343 226.302C74.5992 226.124 74.6923 226.007 74.8136 225.951C74.935 225.895 75.0845 225.899 75.2622 225.964L77.7254 226.863L80.2795 219.867C80.3413 219.698 80.4358 219.584 80.5629 219.524C80.6857 219.464 80.8339 219.465 81.0074 219.528ZM75.2116 217.393C75.4772 217.674 75.4686 217.944 75.1856 218.204L68.881 223.977C68.6313 224.188 68.3763 224.231 68.1158 224.108L68.0914 224.096C67.8327 223.958 67.7174 223.739 67.7456 223.438L68.1901 214.88C68.2126 214.497 68.4125 214.317 68.7899 214.342C69.1713 214.369 69.3507 214.569 69.3279 214.942L69.2274 216.854L73.0304 218.661L74.4189 217.361C74.6959 217.103 74.9601 217.114 75.2116 217.393ZM72.1403 219.495L69.1614 218.08L68.9239 222.501L72.1403 219.495ZM64.4379 212.002C64.7596 212.201 64.8208 212.461 64.6215 212.783L60.3932 219.608C60.1939 219.93 59.9334 219.991 59.6116 219.792C59.4469 219.69 59.3454 219.494 59.307 219.206L58.3754 210.392L58.6166 210.542L55.0503 216.298C54.851 216.62 54.5905 216.681 54.2688 216.482C53.947 216.282 53.8858 216.022 54.0852 215.7L58.3135 208.875C58.5128 208.553 58.7733 208.492 59.095 208.691C59.2674 208.798 59.3689 208.994 59.3997 209.278L60.3313 218.091L60.09 217.942L63.6564 212.185C63.8557 211.863 64.1162 211.802 64.4379 212.002ZM54.8426 206.027C55.0414 206.359 54.9747 206.621 54.6424 206.813L47.2414 211.092C46.9522 211.244 46.6938 211.231 46.4661 211.054L46.4448 211.038C46.2219 210.847 46.1566 210.608 46.249 210.321L48.5278 202.06C48.6325 201.69 48.8664 201.558 49.2295 201.664C49.5963 201.772 49.7283 202.006 49.6257 202.365L49.1152 204.211L52.4392 206.795L54.0755 205.825C54.4015 205.633 54.6572 205.7 54.8426 206.027ZM51.3903 207.418L48.7865 205.394L47.6014 209.66L51.3903 207.418ZM45.4073 198.414C45.6831 198.673 45.6914 198.941 45.4323 199.217L39.9342 205.067C39.6751 205.343 39.4076 205.351 39.1318 205.092C38.856 204.833 38.8477 204.566 39.1068 204.29L44.2161 198.853L41.4877 196.289C41.2119 196.03 41.2036 195.762 41.4628 195.486C41.7219 195.211 41.9894 195.202 42.2652 195.461L45.4073 198.414ZM33.0225 185.272C33.6551 186.087 33.9295 186.841 33.8455 187.533C33.7551 188.225 33.3024 188.887 32.4874 189.52L30.0317 191.426C29.2096 192.065 28.454 192.34 27.765 192.254C27.0723 192.169 26.4146 191.719 25.7918 190.902L24.7889 189.61C24.2695 188.941 24.0119 188.323 24.0159 187.755C24.0165 187.19 24.2918 186.648 24.8419 186.13C24.9748 185.992 25.1108 185.932 25.2499 185.95C25.389 185.967 25.5166 186.051 25.6326 186.2C25.8426 186.471 25.8146 186.743 25.5488 187.018C25.249 187.308 25.1168 187.593 25.1521 187.874C25.1846 188.151 25.3625 188.497 25.6858 188.914L26.6887 190.206C26.978 190.586 27.2514 190.85 27.5089 190.998C27.7636 191.142 28.0372 191.175 28.3297 191.096C28.6159 191.017 28.9512 190.828 29.3355 190.53L31.7912 188.623C32.172 188.328 32.4364 188.051 32.5845 187.794C32.7297 187.532 32.7644 187.257 32.6884 186.969C32.6088 186.682 32.4212 186.349 32.1256 185.968L31.131 184.687C30.8741 184.356 30.6382 184.125 30.4233 183.996C30.2022 183.865 29.97 183.834 29.727 183.903C29.4839 183.972 29.1933 184.138 28.8552 184.4L28.3534 184.79L28.9892 185.631C29.2212 185.93 29.1878 186.195 28.8889 186.427C28.5899 186.659 28.3244 186.626 28.0923 186.327L27.1084 185.038C26.8763 184.739 26.9098 184.473 27.2087 184.241L28.159 183.503C28.917 182.915 29.6072 182.661 30.2295 182.743C30.8482 182.827 31.4477 183.243 32.0279 183.991L33.0225 185.272ZM27.4065 177.748C27.6072 178.069 27.5471 178.33 27.2262 178.53L20.4193 182.788C20.0984 182.989 19.8376 182.928 19.6369 182.608L17.0638 178.494C16.8631 178.173 16.9232 177.912 17.2441 177.711C17.565 177.511 17.8257 177.571 18.0264 177.892L20.2985 181.524L22.705 180.019L21.2787 177.739C21.078 177.418 21.1381 177.157 21.459 176.956C21.7798 176.756 22.0406 176.816 22.2413 177.137L23.6676 179.417L26.1429 177.869L23.8708 174.236C23.6701 173.915 23.7302 173.655 24.0511 173.454C24.3719 173.253 24.6327 173.313 24.8334 173.634L27.4065 177.748ZM19.76 164.188C19.9111 164.279 20.0006 164.392 20.0287 164.529C20.0568 164.667 20.0255 164.811 19.9347 164.962L17.7495 168.393L18.5943 170.086L21.3519 168.711C21.6906 168.542 21.9444 168.626 22.1133 168.965C22.2823 169.304 22.1974 169.558 21.8588 169.726L14.6745 173.311C14.3359 173.48 14.0821 173.395 13.9131 173.056L12.5011 170.226C12.133 169.488 12.049 168.825 12.249 168.237C12.4429 167.647 12.9088 167.168 13.6465 166.8L14.0094 166.619C14.6504 166.299 15.2368 166.193 15.7687 166.3C16.2965 166.409 16.7476 166.723 17.1219 167.241L18.9741 164.338C19.1799 164.044 19.4418 163.994 19.76 164.188ZM17.5784 170.593L16.4198 168.271C16.1905 167.811 15.9308 167.533 15.6407 167.436C15.3507 167.339 14.9759 167.405 14.5163 167.635L14.1534 167.816C13.6979 168.043 13.4216 168.302 13.3246 168.592C13.2236 168.884 13.2878 169.26 13.5171 169.719L14.6756 172.041L17.5784 170.593ZM17.8699 160.411C17.8673 160.797 17.674 160.986 17.29 160.978L8.74335 160.78C8.41738 160.76 8.20323 160.614 8.10092 160.345L8.09133 160.32C8.00005 160.041 8.06872 159.803 8.29733 159.605L14.5419 153.737C14.8236 153.476 15.092 153.485 15.3473 153.764C15.6042 154.047 15.5952 154.315 15.3204 154.569L13.924 155.88L15.4179 159.816L17.3203 159.838C17.6984 159.844 17.8816 160.035 17.8699 160.411ZM14.1981 159.802L13.0279 156.718L9.79602 159.745L14.1981 159.802ZM13.811 149.043C13.9072 149.409 13.7723 149.641 13.4062 149.737L5.64111 151.777C5.27508 151.873 5.04397 151.739 4.94778 151.372L4.11991 148.222C3.82106 147.085 3.87137 146.177 4.27087 145.499C4.66486 144.818 5.43051 144.328 6.56783 144.029L8.79017 143.445C9.92748 143.146 10.8367 143.194 11.5179 143.588C12.1936 143.979 12.682 144.747 12.9831 145.893L13.811 149.043ZM12.5686 148.783L11.885 146.182C11.7385 145.624 11.5553 145.201 11.3355 144.914C11.1101 144.624 10.8185 144.454 10.4606 144.404C10.0971 144.35 9.63648 144.397 9.07872 144.543L6.85638 145.127C6.30297 145.273 5.88336 145.457 5.59755 145.682C5.30623 145.902 5.13379 146.195 5.08022 146.558C5.02552 146.917 5.07145 147.376 5.21801 147.933L5.90161 150.535L12.5686 148.783ZM10.7013 135.493C10.8493 136.514 10.7158 137.305 10.3008 137.866C9.88079 138.423 9.16023 138.776 8.13914 138.923L5.04914 139.371C4.01913 139.521 3.22781 139.385 2.67517 138.964C2.11807 138.544 1.77032 137.825 1.6319 136.807L1.39928 135.202C1.25065 134.176 1.38413 133.385 1.79972 132.829C2.2153 132.273 2.93586 131.92 3.96141 131.771L7.03804 131.326C8.05912 131.178 8.85012 131.311 9.41103 131.726C9.96749 132.142 10.32 132.862 10.4686 133.888L10.7013 135.493ZM9.57764 135.656L9.34501 134.051C9.27587 133.573 9.16585 133.207 9.01496 132.951C8.85961 132.696 8.63787 132.532 8.34972 132.46C8.06093 132.384 7.67798 132.38 7.20088 132.449L4.12425 132.895C3.65161 132.964 3.28769 133.075 3.0325 133.231C2.77666 133.382 2.61049 133.602 2.53397 133.89C2.45746 134.179 2.45377 134.562 2.52291 135.039L2.75554 136.644C2.81958 137.118 2.92704 137.482 3.07793 137.738C3.22882 137.994 3.44866 138.16 3.73746 138.237C4.02625 138.313 4.4092 138.317 4.8863 138.248L7.9763 137.8C8.4534 137.731 8.81987 137.621 9.07571 137.47C9.3309 137.314 9.49675 137.092 9.57327 136.804C9.64532 136.515 9.64678 136.133 9.57764 135.656ZM9.26926 120.461C9.37022 120.605 9.40561 120.746 9.37545 120.883C9.34529 121.019 9.25798 121.138 9.11353 121.239L5.72016 123.483L5.802 125.373L8.88085 125.24C9.25896 125.224 9.45619 125.405 9.47256 125.783C9.48893 126.161 9.30806 126.358 8.92995 126.374L0.908723 126.722C0.530618 126.738 0.333382 126.557 0.317015 126.179L0.180236 123.019C0.14458 122.195 0.337864 121.556 0.760087 121.1C1.17761 120.64 1.79824 120.392 2.62197 120.356L3.02708 120.339C3.74278 120.308 4.32165 120.45 4.76369 120.764C5.20122 121.079 5.48539 121.549 5.6162 122.175L8.4902 120.278C8.79788 120.094 9.05757 120.155 9.26926 120.461ZM4.66768 125.422L4.55545 122.83C4.53324 122.317 4.40943 121.957 4.18402 121.75C3.9586 121.543 3.58933 121.451 3.07618 121.473L2.67107 121.491C2.16243 121.513 1.80475 121.636 1.59805 121.862C1.38684 122.088 1.29234 122.457 1.31455 122.97L1.42678 125.563L4.66768 125.422ZM9.18306 115.222C9.16359 115.6 8.96487 115.779 8.58691 115.759L0.568811 115.346C0.190853 115.327 0.0116116 115.128 0.0310866 114.75L0.280783 109.904C0.300258 109.526 0.498975 109.347 0.876932 109.366C1.25489 109.386 1.43413 109.585 1.41466 109.963L1.19417 114.242L4.02885 114.388L4.16727 111.701C4.18674 111.323 4.38546 111.144 4.76342 111.164C5.14137 111.183 5.32061 111.382 5.30114 111.76L5.16273 114.446L8.0784 114.596L8.29889 110.317C8.31836 109.939 8.51708 109.76 8.89503 109.78C9.27299 109.799 9.45223 109.998 9.43276 110.376L9.18306 115.222ZM10.1485 103.308C10.0315 104.069 9.78645 104.64 9.41346 105.02C9.04115 105.396 8.52616 105.588 7.86848 105.596C7.6698 105.584 7.52901 105.521 7.4461 105.408C7.36319 105.295 7.33611 105.145 7.36486 104.958C7.39362 104.771 7.45903 104.642 7.5611 104.571C7.66385 104.496 7.81114 104.457 8.00297 104.455C8.3205 104.435 8.55394 104.325 8.70326 104.125C8.84882 103.919 8.95651 103.589 9.02634 103.135L9.32209 101.211C9.4104 100.637 9.36788 100.231 9.19452 99.9951C9.0174 99.7537 8.64607 99.5895 8.08052 99.5025C7.50606 99.4142 7.09775 99.4608 6.85559 99.6424C6.60898 99.8233 6.44255 100.194 6.35629 100.755L6.10162 102.412C5.97223 103.254 5.6712 103.848 5.19853 104.195C4.72209 104.536 4.06305 104.642 3.2214 104.513C2.38421 104.384 1.7938 104.088 1.45018 103.625C1.10724 103.158 1.00046 102.503 1.12985 101.661L1.37425 100.072C1.4831 99.3635 1.71306 98.8313 2.06413 98.475C2.41588 98.1143 2.89833 97.9264 3.51148 97.9112C3.70708 97.9139 3.84855 97.9722 3.93592 98.0859C4.01882 98.1989 4.04522 98.3534 4.01509 98.5493C3.98771 98.7275 3.92042 98.8539 3.81321 98.9286C3.706 99.0032 3.56128 99.0402 3.37904 99.0396C3.10536 99.0704 2.90635 99.1789 2.78203 99.3649C2.65325 99.5502 2.55806 99.8433 2.49644 100.244L2.25204 101.834C2.16989 102.368 2.21053 102.741 2.37394 102.953C2.53291 103.165 2.8729 103.31 3.39392 103.391C3.91939 103.471 4.29447 103.433 4.51916 103.276C4.74385 103.119 4.89728 102.774 4.97943 102.239L5.23409 100.583C5.36896 99.7056 5.683 99.0861 6.17623 98.7243C6.67013 98.3581 7.3624 98.2434 8.25303 98.3803C9.13921 98.5166 9.76096 98.8309 10.1183 99.3235C10.4712 99.8153 10.5798 100.502 10.4443 101.384L10.1485 103.308ZM12.3592 80.3808C12.3138 80.4985 12.2299 80.5844 12.1076 80.6387C11.9853 80.6929 11.8653 80.6974 11.7476 80.652C11.6257 80.605 11.5397 80.5211 11.4896 80.4004C11.4354 80.2781 11.431 80.1581 11.4764 80.0404L12.8184 76.5596C12.8654 76.4377 12.9492 76.3517 13.0699 76.3017C13.188 76.2458 13.308 76.2414 13.4299 76.2884C13.5476 76.3338 13.6336 76.4176 13.6879 76.5399C13.7437 76.6581 13.7482 76.7781 13.7012 76.9L12.3592 80.3808ZM24.9895 61.2525C24.7829 61.5696 24.5211 61.6249 24.204 61.4183L17.4769 57.0356C17.1598 56.829 17.1046 56.5672 17.3112 56.2501L19.0377 53.6001C19.4878 52.9092 20.0171 52.5012 20.6256 52.3761C21.2328 52.2447 21.8818 52.404 22.5726 52.8541L22.9123 53.0755C23.6032 53.5255 24.013 54.0561 24.142 54.667C24.2696 55.2718 24.1083 55.9196 23.6583 56.6104L22.2416 58.7848L24.8237 60.467C25.1408 60.6736 25.1961 60.9354 24.9895 61.2525ZM21.2904 58.165L22.707 55.9906C22.9873 55.5603 23.096 55.1955 23.0328 54.8962C22.9697 54.597 22.7229 54.3071 22.2926 54.0268L21.9528 53.8054C21.5262 53.5275 21.1633 53.4201 20.8641 53.4833C20.5611 53.544 20.2694 53.7895 19.989 54.2198L18.5724 56.3942L21.2904 58.165ZM29.7054 54.0486C29.3718 54.2438 29.1105 54.1741 28.9217 53.8397L24.7255 46.3915C24.5769 46.1006 24.5924 45.8423 24.7719 45.6167L24.7887 45.5955C24.9816 45.3747 25.2213 45.3122 25.508 45.4078L33.743 47.7785C34.1113 47.8872 34.2407 48.1226 34.1312 48.4846C34.019 48.8501 33.7836 48.9795 33.4252 48.8728L31.5851 48.3418L28.9641 51.6369L29.9165 53.2839C30.1046 53.612 30.0342 53.8669 29.7054 54.0486ZM28.3532 50.581L30.4062 48L26.1535 46.7675L28.3532 50.581ZM37.4033 44.7552C37.1376 45.0247 36.87 45.0266 36.6005 44.761L30.8824 39.125C30.6129 38.8593 30.6109 38.5917 30.8766 38.3222C31.0126 38.1842 31.2256 38.1285 31.5158 38.1551L40.3165 39.2001L40.1172 39.4023L35.2944 34.6487C35.0249 34.383 35.0229 34.1154 35.2886 33.8459C35.5543 33.5764 35.8219 33.5744 36.0914 33.8401L41.8095 39.4761C42.079 39.7417 42.081 40.0093 41.8153 40.2789C41.673 40.4233 41.4599 40.479 41.1761 40.446L32.3754 39.4009L32.5747 39.1988L37.3975 43.9523C37.667 44.218 37.669 44.4856 37.4033 44.7552ZM47.8498 34.7254C47.704 34.846 47.5645 34.8999 47.4312 34.8873C47.298 34.8747 47.1711 34.7954 47.0506 34.6496L42.3049 28.9099L40.284 30.5808C40.1382 30.7014 39.9986 30.7553 39.8654 30.7427C39.7322 30.7301 39.6053 30.6509 39.4848 30.505C39.3642 30.3592 39.3102 30.2197 39.3228 30.0865C39.3355 29.9532 39.4147 29.8264 39.5605 29.7058L44.4773 25.6405C44.6231 25.5199 44.7627 25.466 44.8959 25.4786C45.0291 25.4912 45.156 25.5704 45.2765 25.7163C45.3971 25.8621 45.4511 26.0016 45.4385 26.1348C45.4258 26.2681 45.3466 26.3949 45.2008 26.5155L43.1799 28.1864L47.9256 33.9261C48.0404 34.065 48.0912 34.2042 48.078 34.3438C48.0682 34.4805 47.9922 34.6077 47.8498 34.7254ZM52.6256 30.7995C52.2491 30.8873 52.0202 30.7435 51.9387 30.3682L50.1327 22.0122C50.0768 21.6904 50.1679 21.4482 50.4061 21.2857L50.4285 21.2705C50.678 21.1166 50.9256 21.1278 51.1711 21.3038L58.3367 26.0038C58.6564 26.2165 58.7105 26.4796 58.4989 26.7931C58.2835 27.109 58.0204 27.1631 57.7095 26.9552L56.1088 25.9038L52.6306 28.2764L53.0534 30.1314C53.136 30.5004 52.9935 30.7231 52.6256 30.7995ZM52.3593 27.0871L55.0837 25.2286L51.3857 22.7937L52.3593 27.0871ZM62.714 24.2168C62.3795 24.394 62.1237 24.3153 61.9466 23.9809L58.1883 16.8861C58.0112 16.5517 58.0898 16.2959 58.4243 16.1187C58.5955 16.028 58.8154 16.039 59.0841 16.1516L67.163 19.7952L66.9122 19.928L63.7423 13.944C63.5652 13.6096 63.6438 13.3538 63.9783 13.1766C64.3127 12.9995 64.5685 13.0781 64.7457 13.4126L68.5039 20.5074C68.6811 20.8418 68.6024 21.0976 68.268 21.2748C68.0888 21.3697 67.8689 21.3587 67.6081 21.2419L59.5292 17.5983L59.7801 17.4654L62.9499 23.4494C63.127 23.7839 63.0484 24.0397 62.714 24.2168ZM72.713 18.9489C72.3265 18.9532 72.134 18.7633 72.1357 18.3793L72.1796 9.83042C72.1946 9.50412 72.336 9.28741 72.6037 9.18029L72.6288 9.17024C72.9057 9.07399 73.145 9.13838 73.3467 9.36341L79.3262 15.5019C79.5923 15.7787 79.5882 16.0473 79.3138 16.3075C79.0352 16.5695 78.7666 16.5653 78.5081 16.2951L77.1726 14.9224L73.2636 16.4866L73.2752 18.3891C73.2761 18.7673 73.0887 18.9539 72.713 18.9489ZM73.2559 15.2668L76.3179 14.0415L73.234 10.8644L73.2559 15.2668ZM84.0456 14.652C83.6825 14.7589 83.4476 14.6308 83.3407 14.2678L81.0733 6.56583C80.9665 6.20277 81.0946 5.96781 81.4576 5.86093C81.8207 5.75405 82.0556 5.88214 82.1625 6.24519L84.2695 13.4025L87.8612 12.3452C88.2242 12.2383 88.4592 12.3664 88.5661 12.7295C88.673 13.0925 88.5449 13.3275 88.1818 13.4344L84.0456 14.652ZM101.639 10.6395C100.616 10.7704 99.8269 10.6237 99.273 10.1995C98.723 9.77015 98.3826 9.04379 98.2517 8.02037L97.8574 4.93671C97.7254 3.90436 97.8718 3.11347 98.2966 2.56405C98.7209 2.01016 99.4431 1.67253 100.463 1.55116L102.085 1.34371C102.926 1.23627 103.589 1.32855 104.076 1.62056C104.563 1.9081 104.889 2.42047 105.056 3.15766C105.107 3.34193 105.09 3.48951 105.004 3.6004C104.918 3.7113 104.781 3.77874 104.594 3.80275C104.254 3.84618 104.033 3.68363 103.932 3.31508C103.835 2.90964 103.656 2.65085 103.397 2.5387C103.141 2.42598 102.752 2.40305 102.229 2.46992L100.607 2.67737C100.133 2.73348 99.7666 2.83483 99.5083 2.98142C99.2544 3.12743 99.0871 3.34641 99.0063 3.63836C98.9295 3.92526 98.9219 4.31004 98.9836 4.7927L99.3779 7.87636C99.4391 8.35455 99.543 8.72281 99.6896 8.98113C99.8406 9.23889 100.06 9.40843 100.347 9.48976C100.634 9.56663 101.017 9.57449 101.495 9.51334L103.104 9.3076C103.519 9.25445 103.838 9.16832 104.059 9.04922C104.284 8.92508 104.428 8.74082 104.492 8.49642C104.556 8.25203 104.561 7.91755 104.507 7.49299L104.426 6.86285L103.379 6.98318C103.004 7.03118 102.792 6.86748 102.744 6.49208C102.696 6.11668 102.859 5.90497 103.235 5.85697L104.845 5.66464C105.221 5.61663 105.433 5.78033 105.481 6.15573L105.633 7.34897C105.755 8.30088 105.623 9.02411 105.236 9.51866C104.849 10.0087 104.186 10.3138 103.248 10.4338L101.639 10.6395ZM110.979 9.62161C110.6 9.63205 110.406 9.44812 110.396 9.06981L110.174 1.04413C110.164 0.665811 110.347 0.47143 110.726 0.460983L115.576 0.327039C115.955 0.316592 116.149 0.500526 116.159 0.87884C116.17 1.25716 115.986 1.45154 115.608 1.46198L111.325 1.58026L111.403 4.41762L114.092 4.34337C114.47 4.33292 114.664 4.51686 114.675 4.89517C114.685 5.27349 114.501 5.46787 114.123 5.47832L111.434 5.55256L111.515 8.47099L115.798 8.35272C116.176 8.34227 116.371 8.52621 116.381 8.90452C116.392 9.28284 116.208 9.47722 115.829 9.48766L110.979 9.62161ZM126.551 9.88854C126.396 9.973 126.253 9.99273 126.12 9.94773C125.988 9.90273 125.879 9.8029 125.795 9.64822L123.938 6.02871L122.05 5.90219L121.844 8.97703C121.818 9.35464 121.617 9.53079 121.239 9.50549C120.862 9.48018 120.685 9.27872 120.711 8.90111L121.247 0.890341C121.273 0.512729 121.474 0.336575 121.852 0.36188L125.008 0.57336C125.83 0.628489 126.445 0.890938 126.851 1.36071C127.263 1.82628 127.441 2.4704 127.386 3.29305L127.359 3.69764C127.311 4.4124 127.106 4.97217 126.745 5.37694C126.384 5.77721 125.885 6.00796 125.249 6.06918L126.818 9.13429C126.968 9.46042 126.879 9.71183 126.551 9.88854ZM122.125 4.76935L124.715 4.94287C125.227 4.97721 125.599 4.89373 125.829 4.69241C126.059 4.49109 126.191 4.13419 126.226 3.62172L126.253 3.21714C126.287 2.70916 126.203 2.34005 126.002 2.10981C125.801 1.87508 125.444 1.74054 124.932 1.7062L122.342 1.53267L122.125 4.76935ZM130.764 10.166C130.432 9.96828 130.366 9.70593 130.568 9.37898L135.059 2.1047C135.241 1.834 135.475 1.72266 135.759 1.77068L135.786 1.77518C136.072 1.83728 136.243 2.01689 136.298 2.31403L138.204 10.6688C138.287 11.0437 138.144 11.2708 137.774 11.35C137.4 11.4285 137.173 11.285 137.093 10.9197L136.668 9.0522L132.516 8.35104L131.535 9.98103C131.339 10.3043 131.082 10.366 130.764 10.166ZM133.145 7.30579L136.397 7.85502L135.42 3.5365L133.145 7.30579ZM142.619 12.4113C142.255 12.3089 142.124 12.0756 142.226 11.7112L144.397 3.98153C144.499 3.61717 144.733 3.48615 145.097 3.58848L148.233 4.46921C149.365 4.78715 150.123 5.28997 150.505 5.97768C150.893 6.66226 150.928 7.57062 150.61 8.70275L149.989 10.915C149.671 12.0471 149.17 12.8072 148.485 13.1952C147.806 13.5801 146.896 13.6124 145.755 13.292L142.619 12.4113ZM143.473 11.4717L146.062 12.1989C146.618 12.3548 147.075 12.4106 147.433 12.3663C147.798 12.3189 148.092 12.1535 148.317 11.8703C148.547 11.584 148.74 11.1632 148.896 10.608L149.517 8.39577C149.672 7.84489 149.725 7.38946 149.676 7.0295C149.633 6.66641 149.468 6.36978 149.182 6.13961C148.9 5.91066 148.481 5.71823 147.926 5.5623L145.337 4.83505L143.473 11.4717ZM155.9 16.5791C154.943 16.1937 154.326 15.6806 154.05 15.04C153.779 14.3968 153.837 13.5967 154.222 12.6396L155.389 9.74338C155.778 8.77797 156.293 8.16216 156.934 7.89595C157.577 7.62556 158.374 7.68642 159.323 8.07854L160.828 8.68448C161.789 9.07161 162.406 9.58467 162.678 10.2237C162.95 10.8627 162.892 11.6628 162.505 12.624L161.344 15.5077C160.958 16.4648 160.445 17.0814 159.805 17.3577C159.166 17.6297 158.366 17.5722 157.404 17.1851L155.9 16.5791ZM156.324 15.526L157.828 16.1319C158.276 16.312 158.648 16.4012 158.945 16.3993C159.243 16.3934 159.496 16.2839 159.704 16.0711C159.915 15.8599 160.111 15.5307 160.291 15.0836L161.452 12.1999C161.63 11.7569 161.717 11.386 161.711 11.0873C161.709 10.7903 161.602 10.5361 161.391 10.3248C161.18 10.1135 160.851 9.91775 160.404 9.73765L158.899 9.13171C158.458 8.94912 158.089 8.85873 157.792 8.86053C157.495 8.86234 157.24 8.96883 157.029 9.18001C156.818 9.39118 156.622 9.72035 156.442 10.1675L155.276 13.0638C155.095 13.5109 155.006 13.883 155.008 14.1801C155.014 14.4787 155.123 14.7338 155.334 14.9451C155.547 15.1523 155.877 15.3459 156.324 15.526ZM169.581 22.9177C169.405 22.9316 169.266 22.8909 169.163 22.7957C169.061 22.7005 169.003 22.5651 168.989 22.3894L168.773 18.327L167.102 17.4398L165.657 20.1619C165.479 20.4962 165.223 20.5747 164.889 20.3972C164.555 20.2198 164.476 19.964 164.654 19.6297L168.418 12.5379C168.595 12.2036 168.851 12.1251 169.185 12.3026L171.979 13.7853C172.707 14.1719 173.161 14.6626 173.34 15.2575C173.525 15.8505 173.425 16.5111 173.038 17.2394L172.848 17.5976C172.512 18.2304 172.097 18.6576 171.601 18.8794C171.108 19.0972 170.559 19.104 169.953 18.8998L170.133 22.3386C170.136 22.6974 169.952 22.8905 169.581 22.9177ZM167.634 16.437L169.926 17.6536C170.38 17.8944 170.753 17.9699 171.045 17.8803C171.338 17.7907 171.604 17.519 171.845 17.0653L172.035 16.7071C172.274 16.2574 172.348 15.8864 172.259 15.594C172.171 15.2976 171.901 15.029 171.447 14.7882L169.155 13.5716L167.634 16.437ZM174.132 25.4959C173.817 25.2871 173.763 25.0249 173.972 24.7093L178.403 18.0136C178.612 17.698 178.874 17.6446 179.189 17.8535L183.236 20.5312C183.552 20.74 183.605 21.0023 183.396 21.3179C183.187 21.6335 182.925 21.6869 182.61 21.478L179.036 19.1136L177.47 21.4807L179.713 22.965C180.029 23.1739 180.082 23.4361 179.873 23.7517C179.664 24.0673 179.402 24.1207 179.087 23.9119L176.843 22.4276L175.232 24.8624L178.806 27.2268C179.121 27.4356 179.175 27.6979 178.966 28.0135C178.757 28.3291 178.495 28.3825 178.179 28.1736L174.132 25.4959ZM183.918 32.3807C183.321 31.8947 182.952 31.3946 182.812 30.8806C182.676 30.3694 182.771 29.8279 183.096 29.2563C183.208 29.0911 183.333 29.0013 183.472 28.987C183.612 28.9726 183.755 29.0251 183.902 29.1444C184.048 29.2638 184.127 29.3855 184.136 29.5094C184.149 29.6361 184.108 29.7829 184.014 29.9496C183.87 30.2335 183.847 30.4905 183.944 30.7206C184.048 30.9501 184.278 31.2098 184.635 31.4997L186.145 32.7276C186.596 33.0942 186.967 33.2625 187.259 33.2324C187.556 33.2017 187.886 32.9643 188.247 32.5204C188.613 32.0694 188.78 31.6935 188.745 31.3928C188.714 31.0886 188.478 30.7574 188.038 30.3993L186.737 29.342C186.077 28.8048 185.716 28.2447 185.656 27.6616C185.602 27.0778 185.844 26.4556 186.381 25.7949C186.915 25.1377 187.469 24.7779 188.042 24.7155C188.619 24.6561 189.238 24.8949 189.899 25.4321L191.147 26.4467C191.702 26.8986 192.045 27.3661 192.175 27.8491C192.309 28.335 192.227 28.8463 191.93 29.3829C191.829 29.5503 191.707 29.6429 191.565 29.6608C191.425 29.6752 191.279 29.6199 191.125 29.4948C190.985 29.3811 190.91 29.2591 190.9 29.1289C190.889 28.9986 190.931 28.8551 191.023 28.6982C191.135 28.4464 191.142 28.2199 191.045 28.0186C190.95 27.8138 190.745 27.5835 190.43 27.3277L189.182 26.313C188.763 25.972 188.42 25.8183 188.155 25.8521C187.892 25.8824 187.594 26.1021 187.262 26.5111C186.927 26.9236 186.77 27.2665 186.792 27.5397C186.813 27.8129 187.034 28.12 187.453 28.461L188.754 29.5183C189.443 30.0783 189.818 30.6624 189.881 31.2709C189.947 31.8822 189.696 32.5374 189.128 33.2366C188.562 33.9323 187.977 34.3097 187.371 34.369C186.768 34.4248 186.121 34.1713 185.429 33.6085L183.918 32.3807ZM202.571 45.8901C202.493 45.7914 202.461 45.6756 202.476 45.5427C202.491 45.4097 202.548 45.3039 202.646 45.2253C202.748 45.1438 202.864 45.112 202.994 45.1298C203.127 45.1448 203.232 45.2016 203.311 45.3002L205.637 48.2171C205.718 48.3193 205.75 48.4351 205.732 48.5645C205.721 48.6947 205.664 48.8005 205.562 48.8819C205.463 48.9606 205.347 48.9924 205.214 48.9774C205.084 48.9659 204.978 48.9091 204.897 48.8069L202.571 45.8901ZM212.713 66.4484C212.543 66.11 212.628 65.8561 212.966 65.6866L220.144 62.0901C220.483 61.9206 220.737 62.005 220.906 62.3433L222.323 65.1711C222.692 65.9083 222.778 66.5711 222.579 67.1596C222.386 67.7501 221.921 68.2301 221.183 68.5994L220.821 68.781C220.084 69.1504 219.419 69.2366 218.826 69.0396C218.24 68.8446 217.762 68.3786 217.393 67.6414L216.23 65.3212L213.475 66.7017C213.136 66.8712 212.883 66.7868 212.713 66.4484ZM217.245 64.8126L218.408 67.1328C218.638 67.592 218.898 67.8699 219.188 67.9663C219.478 68.0628 219.853 67.996 220.312 67.7659L220.675 67.5843C221.13 67.3562 221.406 67.0971 221.502 66.8069C221.603 66.5146 221.538 66.1389 221.308 65.6797L220.145 63.3595L217.245 64.8126ZM216.551 74.1523C216.551 73.7658 216.744 73.5755 217.127 73.5815L225.675 73.7234C226.001 73.7421 226.216 73.886 226.32 74.1549L226.33 74.1801C226.423 74.4581 226.356 74.6966 226.129 74.8957L219.922 80.8046C219.642 81.0675 219.374 81.0602 219.117 80.7829C218.858 80.5014 218.865 80.2329 219.139 79.9774L220.526 78.6577L219.007 74.7311L217.105 74.7209C216.726 74.7174 216.542 74.5279 216.551 74.1523ZM220.227 74.7373L221.417 77.8131L224.629 74.7658L220.227 74.7373ZM220.68 85.4878C220.582 85.1223 220.715 84.8905 221.081 84.7924L228.835 82.7109C229.201 82.6128 229.432 82.7465 229.531 83.1121C229.581 83.2992 229.521 83.5111 229.351 83.7479L223.998 90.8109L223.924 90.5367L230.465 88.7812C230.83 88.6831 231.062 88.8168 231.16 89.1823C231.258 89.5478 231.124 89.7796 230.759 89.8777L223.005 91.9592C222.639 92.0573 222.407 91.9236 222.309 91.5581C222.257 91.3623 222.316 91.1503 222.488 90.9222L227.842 83.8592L227.915 84.1334L221.375 85.8889C221.01 85.9871 220.778 85.8534 220.68 85.4878ZM224.03 99.5601C224 99.3732 224.025 99.2256 224.104 99.1174C224.182 99.0091 224.315 98.9402 224.502 98.9107L231.858 97.747L231.448 95.157C231.419 94.9701 231.443 94.8226 231.522 94.7143C231.601 94.6061 231.733 94.5372 231.92 94.5076C232.107 94.4781 232.255 94.5026 232.363 94.5813C232.471 94.66 232.54 94.7927 232.57 94.9796L233.567 101.281C233.596 101.468 233.572 101.616 233.493 101.724C233.414 101.832 233.281 101.901 233.094 101.93C232.908 101.96 232.76 101.935 232.652 101.857C232.544 101.778 232.475 101.645 232.445 101.458L232.035 98.8685L224.679 100.032C224.501 100.06 224.356 100.033 224.242 99.9507C224.13 99.8728 224.059 99.7425 224.03 99.5601ZM224.979 105.671C225.095 105.302 225.335 105.178 225.7 105.299L233.813 107.992C234.119 108.108 234.281 108.309 234.3 108.597L234.302 108.624C234.307 108.917 234.172 109.125 233.895 109.247L226.205 113.027C225.859 113.195 225.605 113.107 225.443 112.766C225.28 112.42 225.368 112.166 225.705 112.004L227.424 111.16L227.149 106.958L225.337 106.379C224.977 106.263 224.858 106.027 224.979 105.671ZM228.311 107.329L228.527 110.62L232.503 108.674L228.311 107.329ZM225.53 117.732C225.545 117.354 225.742 117.173 226.12 117.188L234.142 117.505C234.52 117.52 234.702 117.717 234.687 118.095C234.679 118.288 234.559 118.473 234.327 118.649L227.116 123.801L227.127 123.518L233.894 123.785C234.272 123.8 234.454 123.997 234.439 124.375C234.424 124.753 234.227 124.935 233.849 124.92L225.826 124.602C225.448 124.587 225.267 124.391 225.282 124.013C225.29 123.81 225.41 123.625 225.642 123.459L232.853 118.306L232.841 118.59L226.075 118.322C225.697 118.307 225.515 118.111 225.53 117.732ZM225.057 129.016C225.248 128.68 225.51 128.609 225.84 128.805L233.2 133.154C233.474 133.332 233.59 133.563 233.547 133.848L233.543 133.875C233.487 134.163 233.311 134.337 233.015 134.398L224.698 136.465C224.325 136.555 224.095 136.416 224.009 136.048C223.923 135.675 224.062 135.445 224.426 135.358L226.285 134.897L226.906 130.733L225.257 129.784C224.93 129.594 224.863 129.338 225.057 129.016ZM227.963 131.342L227.476 134.604L231.775 133.543L227.963 131.342ZM223.048 140.953C223.14 140.586 223.37 140.449 223.737 140.541L231.524 142.497C231.891 142.589 232.028 142.819 231.936 143.186C231.844 143.553 231.614 143.691 231.247 143.598L224.011 141.781L223.099 145.412C223.006 145.779 222.777 145.916 222.41 145.824C222.043 145.732 221.905 145.502 221.997 145.135L223.048 140.953ZM217.63 158.179C218.035 157.23 218.56 156.624 219.206 156.361C219.855 156.104 220.654 156.177 221.603 156.582L224.462 157.801C225.42 158.209 226.028 158.736 226.287 159.38C226.55 160.026 226.476 160.82 226.065 161.761L225.424 163.266C225.092 164.045 224.676 164.571 224.178 164.843C223.684 165.117 223.077 165.14 222.356 164.911C222.172 164.862 222.053 164.772 222.001 164.642C221.949 164.512 221.96 164.36 222.034 164.186C222.168 163.871 222.42 163.763 222.789 163.862C223.188 163.983 223.502 163.96 223.73 163.792C223.956 163.629 224.173 163.305 224.379 162.82L225.021 161.316C225.212 160.878 225.31 160.511 225.314 160.214C225.317 159.921 225.212 159.666 225.001 159.449C224.793 159.238 224.465 159.036 224.017 158.846L221.157 157.626C220.714 157.437 220.344 157.341 220.047 157.336C219.748 157.336 219.491 157.44 219.275 157.647C219.064 157.855 218.864 158.181 218.675 158.625L218.038 160.117C217.874 160.502 217.787 160.82 217.778 161.071C217.772 161.328 217.858 161.546 218.036 161.725C218.214 161.904 218.5 162.077 218.894 162.245L219.479 162.494L219.905 161.53C220.053 161.181 220.301 161.082 220.649 161.23C220.998 161.379 221.097 161.627 220.949 161.975L220.3 163.462C220.152 163.81 219.904 163.91 219.555 163.761L218.449 163.289C217.566 162.913 217.009 162.433 216.778 161.85C216.551 161.268 216.623 160.542 216.994 159.671L217.63 158.179ZM213.784 166.752C213.967 166.421 214.224 166.346 214.555 166.528L221.59 170.398C221.922 170.58 221.996 170.837 221.814 171.169L219.475 175.421C219.293 175.752 219.036 175.827 218.704 175.644C218.372 175.462 218.298 175.205 218.48 174.873L220.545 171.119L218.058 169.751L216.762 172.108C216.58 172.439 216.323 172.514 215.991 172.332C215.659 172.149 215.585 171.892 215.767 171.561L217.063 169.204L214.505 167.797L212.44 171.551C212.258 171.883 212.001 171.957 211.669 171.775C211.338 171.592 211.263 171.335 211.446 171.004L213.784 166.752ZM205.666 180.033C205.672 179.857 205.728 179.723 205.834 179.632C205.94 179.541 206.081 179.498 206.257 179.504L210.318 179.743L211.386 178.181L208.842 176.441C208.53 176.228 208.48 175.965 208.694 175.652C208.907 175.34 209.17 175.29 209.483 175.504L216.111 180.035C216.423 180.249 216.472 180.512 216.259 180.824L214.474 183.435C214.008 184.116 213.47 184.512 212.859 184.624C212.249 184.741 211.604 184.568 210.923 184.102L210.588 183.873C209.997 183.469 209.619 183.009 209.453 182.492C209.292 181.978 209.347 181.431 209.617 180.852L206.18 180.646C205.823 180.61 205.651 180.405 205.666 180.033ZM212.323 178.821L210.859 180.964C210.569 181.388 210.452 181.75 210.508 182.051C210.565 182.351 210.805 182.646 211.229 182.936L211.564 183.165C211.984 183.452 212.345 183.568 212.645 183.511C212.949 183.457 213.247 183.219 213.536 182.795L215.001 180.652L212.323 178.821ZM203.286 183.523C203.625 183.337 203.884 183.414 204.063 183.753L208.049 191.317C208.189 191.612 208.166 191.869 207.981 192.09L207.963 192.111C207.764 192.326 207.523 192.382 207.239 192.278L199.074 189.677C198.709 189.558 198.586 189.319 198.705 188.96C198.828 188.598 199.067 188.475 199.422 188.592L201.247 189.174L203.959 185.954L203.053 184.281C202.875 183.948 202.952 183.695 203.286 183.523ZM204.54 187.027L202.415 189.549L206.632 190.901L204.54 187.027ZM195.327 192.603C195.6 192.341 195.867 192.346 196.13 192.619L201.695 198.405C201.957 198.678 201.952 198.946 201.679 199.208L199.332 201.466C198.484 202.281 197.667 202.679 196.88 202.661C196.093 202.649 195.292 202.219 194.477 201.371L192.884 199.715C192.069 198.868 191.668 198.05 191.68 197.264C191.692 196.483 192.125 195.682 192.979 194.861L195.327 192.603ZM195.705 193.815L193.766 195.679C193.35 196.079 193.071 196.445 192.927 196.777C192.784 197.115 192.777 197.452 192.908 197.789C193.038 198.133 193.303 198.513 193.703 198.928L195.296 200.584C195.692 200.997 196.058 201.273 196.393 201.413C196.728 201.56 197.067 201.568 197.411 201.438C197.751 201.311 198.129 201.047 198.545 200.648L200.483 198.783L195.705 193.815ZM185.005 201.954C185.821 201.323 186.575 201.049 187.267 201.134C187.959 201.226 188.621 201.679 189.252 202.495L191.163 204.965C191.8 205.788 192.072 206.543 191.977 207.231C191.886 207.923 191.432 208.58 190.614 209.201L189.331 210.194C188.511 210.828 187.757 211.101 187.068 211.014C186.379 210.926 185.718 210.472 185.084 209.653L183.181 207.194C182.549 206.378 182.276 205.624 182.361 204.932C182.449 204.243 182.903 203.581 183.722 202.947L185.005 201.954ZM185.7 202.852L184.417 203.845C184.036 204.14 183.771 204.416 183.622 204.673C183.477 204.934 183.444 205.208 183.523 205.494C183.598 205.783 183.784 206.118 184.079 206.499L185.981 208.958C186.274 209.336 186.55 209.597 186.811 209.743C187.068 209.891 187.342 209.928 187.631 209.852C187.92 209.777 188.255 209.591 188.636 209.296L189.919 208.303C190.299 208.015 190.564 207.742 190.712 207.484C190.86 207.227 190.897 206.954 190.821 206.665C190.746 206.376 190.56 206.041 190.265 205.659L188.354 203.19C188.059 202.809 187.783 202.544 187.526 202.396C187.265 202.25 186.99 202.215 186.701 202.291C186.415 202.37 186.081 202.557 185.7 202.852ZM172.626 210.569C172.702 210.41 172.808 210.31 172.942 210.27C173.076 210.229 173.222 210.247 173.381 210.324L176.997 212.187L178.606 211.191L176.984 208.57C176.785 208.248 176.846 207.988 177.168 207.789C177.49 207.59 177.75 207.651 177.95 207.973L182.176 214.799C182.375 215.121 182.313 215.382 181.992 215.581L179.302 217.245C178.601 217.679 177.949 217.824 177.345 217.678C176.739 217.539 176.22 217.119 175.786 216.418L175.572 216.073C175.195 215.464 175.036 214.89 175.094 214.35C175.155 213.815 175.426 213.337 175.907 212.917L172.847 211.338C172.536 211.16 172.462 210.903 172.626 210.569ZM179.204 212.156L176.997 213.522C176.561 213.792 176.307 214.076 176.237 214.374C176.167 214.672 176.267 215.039 176.538 215.476L176.751 215.82C177.019 216.253 177.302 216.505 177.6 216.575C177.9 216.649 178.268 216.55 178.705 216.28L180.911 214.914L179.204 212.156ZM168.105 213.198C168.444 213.031 168.698 213.117 168.865 213.457L172.41 220.66C172.577 221 172.491 221.253 172.151 221.421L167.798 223.563C167.458 223.73 167.205 223.644 167.038 223.305C166.87 222.965 166.957 222.712 167.296 222.545L171.141 220.653L169.887 218.106L167.474 219.294C167.134 219.461 166.881 219.374 166.714 219.035C166.547 218.695 166.633 218.442 166.973 218.275L169.386 217.087L168.097 214.468L164.252 216.36C163.913 216.527 163.659 216.441 163.492 216.101C163.325 215.761 163.411 215.508 163.751 215.341L168.105 213.198ZM157.226 218.168C157.947 217.898 158.565 217.833 159.079 217.972C159.589 218.113 160.008 218.469 160.337 219.038C160.423 219.218 160.437 219.371 160.379 219.499C160.321 219.626 160.204 219.723 160.026 219.79C159.849 219.856 159.705 219.862 159.593 219.807C159.477 219.755 159.371 219.645 159.275 219.479C159.103 219.212 158.893 219.062 158.645 219.029C158.395 219.003 158.054 219.07 157.624 219.231L155.801 219.914C155.257 220.118 154.924 220.353 154.802 220.62C154.678 220.892 154.717 221.296 154.917 221.832C155.121 222.377 155.361 222.71 155.638 222.832C155.916 222.959 156.321 222.923 156.853 222.724L158.423 222.136C159.22 221.838 159.886 221.81 160.419 222.053C160.95 222.301 161.365 222.824 161.663 223.622C161.96 224.415 161.991 225.075 161.755 225.601C161.515 226.129 160.996 226.542 160.198 226.84L158.692 227.404C158.021 227.656 157.444 227.715 156.962 227.583C156.475 227.453 156.075 227.124 155.763 226.596C155.669 226.424 155.651 226.272 155.707 226.14C155.765 226.013 155.887 225.914 156.073 225.845C156.242 225.782 156.385 225.779 156.503 225.836C156.62 225.893 156.723 226.001 156.812 226.16C156.972 226.384 157.164 226.504 157.387 226.522C157.612 226.544 157.914 226.483 158.294 226.341L159.8 225.777C160.307 225.588 160.612 225.37 160.717 225.124C160.824 224.882 160.785 224.514 160.6 224.02C160.414 223.522 160.197 223.214 159.95 223.094C159.704 222.975 159.327 223.01 158.821 223.2L157.251 223.787C156.42 224.098 155.726 224.127 155.169 223.874C154.608 223.622 154.17 223.074 153.854 222.23C153.539 221.391 153.51 220.695 153.765 220.142C154.021 219.594 154.567 219.163 155.403 218.851L157.226 218.168ZM136.138 227.419C136.263 227.401 136.379 227.432 136.486 227.512C136.593 227.593 136.656 227.695 136.674 227.82C136.692 227.949 136.661 228.065 136.58 228.168C136.5 228.275 136.398 228.338 136.273 228.356L132.58 228.886C132.451 228.905 132.335 228.874 132.232 228.793C132.126 228.717 132.063 228.615 132.045 228.485C132.027 228.36 132.058 228.244 132.138 228.137C132.214 228.031 132.316 227.968 132.446 227.95L136.138 227.419Z" fill="white"/>
</g>
</g>
</svg>
